<svg width="87" height="88" xmlns="http://www.w3.org/2000/svg" xmlns:xlink="http://www.w3.org/1999/xlink" xml:space="preserve" overflow="hidden"><g transform="translate(-1022 -483)"><path d="M49.6299 50.1156C50.6504 51.1072 50.6739 52.7384 49.6823 53.7589 49.665 53.7766 49.6475 53.7941 49.6299 53.8113L45.2056 55.2686 44.4253 54.4883 45.8825 50.064C46.9391 49.0626 48.6013 49.0855 49.6299 50.1156ZM69.6217 23.4093 44.0655 49.0227 40.7812 58.9126 50.7228 55.6329 76.2845 30.0766Z" fill="#FFFFFF" transform="matrix(1 0 0 1.01149 1022 483)"/><path d="M81.8507 21.5388 78.155 17.8432C77.3542 17.0238 76.0409 17.0088 75.2216 17.8095 75.2102 17.8206 75.199 17.8318 75.1879 17.8432L71.5439 21.4872 78.155 28.0938 81.7981 24.4506C82.6155 23.7315 82.695 22.4861 81.976 21.6688 81.9362 21.6236 81.8945 21.5802 81.8507 21.5388Z" fill="#FFFFFF" transform="matrix(1 0 0 1.01149 1022 483)"/><path d="M23.5625 58.9062 37.9193 58.9062 39.121 55.2812 23.5625 55.2812 23.5625 58.9062Z" fill="#FFFFFF" transform="matrix(1 0 0 1.01149 1022 483)"/><path d="M23.5625 37.1562 52.0623 37.1562 55.68 33.5312 23.5625 33.5312 23.5625 37.1562Z" fill="#FFFFFF" transform="matrix(1 0 0 1.01149 1022 483)"/><path d="M63.4375 46.7625 63.4375 74.3125 18.125 74.3125 18.125 18.125 28.0938 18.125 28.0938 23.5625 53.4688 23.5625 53.4688 18.125 63.4375 18.125 63.4375 25.7574 67.6969 21.4872 67.6969 21.4872 67.8518 21.3322 68.875 20.3091 68.875 16.3125C68.875 14.3105 67.252 12.6875 65.25 12.6875L49.8438 12.6875 49.8438 10.875C49.8438 8.87297 48.2207 7.25 46.2188 7.25L35.3438 7.25C33.3418 7.25 31.7188 8.87297 31.7188 10.875L31.7188 12.6875 16.3125 12.6875C14.3105 12.6875 12.6875 14.3105 12.6875 16.3125L12.6875 76.125C12.6875 78.127 14.3105 79.75 16.3125 79.75L65.25 79.75C67.252 79.75 68.875 78.127 68.875 76.125L68.875 41.325ZM38.8455 11.658C39.3576 11.145 40.0564 10.8623 40.7812 10.875 42.2828 10.875 43.5 12.0922 43.5 13.5938 43.5 15.0953 42.2828 16.3125 40.7812 16.3125 39.2797 16.3125 38.0625 15.0953 38.0625 13.5938 38.0498 12.8689 38.3325 12.1701 38.8455 11.658Z" fill="#FFFFFF" transform="matrix(1 0 0 1.01149 1022 483)"/><path d="M23.5625 48.0312 41.1873 48.0312 44.805 44.4062 23.5625 44.4062 23.5625 48.0312Z" fill="#FFFFFF" transform="matrix(1 0 0 1.01149 1022 483)"/></g></svg>