<svg width="92" height="87" xmlns="http://www.w3.org/2000/svg" xmlns:xlink="http://www.w3.org/1999/xlink" xml:space="preserve" overflow="hidden"><g transform="translate(-454 -484)"><path d="M58 61.625 58 54.375 27.1875 54.375C26.1906 54.375 25.375 53.5594 25.375 52.5625L25.375 34.4375C25.375 33.4406 26.1906 32.625 27.1875 32.625L58 32.625 58 25.375C58 23.3812 56.3688 21.75 54.375 21.75L51.2031 21.75C50.9313 21.75 50.75 21.5687 50.75 21.2969L50.75 18.5781C50.75 18.3063 50.9313 18.125 51.2031 18.125L53.4688 18.125C54.0125 18.125 54.375 17.7625 54.375 17.2188L54.375 10.875C54.375 8.88125 52.7438 7.25 50.75 7.25L25.375 7.25C23.3812 7.25 21.75 8.88125 21.75 10.875L21.75 17.2188C21.75 17.7625 22.1125 18.125 22.6562 18.125L24.9219 18.125C25.1937 18.125 25.375 18.3063 25.375 18.5781L25.375 21.2969C25.375 21.5687 25.1937 21.75 24.9219 21.75L21.75 21.75C19.7562 21.75 18.125 23.3812 18.125 25.375L18.125 68.875C18.125 70.8687 19.7562 72.5 21.75 72.5L34.4375 72.5C34.4375 66.5188 39.3313 61.625 45.3125 61.625L58 61.625Z" fill="#FFFFFF" transform="matrix(1.05747 0 0 1 454 484)"/><path d="M29 37.1562 29 49.8438C29 50.3875 29.3625 50.75 29.9062 50.75L58 50.75 58 36.25 29.9062 36.25C29.3625 36.25 29 36.6125 29 37.1562Z" fill="#FFFFFF" transform="matrix(1.05747 0 0 1 454 484)"/><path d="M53.4688 76.125 45.3125 76.125C43.3187 76.125 41.6875 74.4937 41.6875 72.5 41.6875 70.5063 43.3187 68.875 45.3125 68.875L53.4688 68.875 53.4688 76.125ZM61.625 65.25 45.3125 65.25C41.325 65.25 38.0625 68.5125 38.0625 72.5 38.0625 76.4875 41.325 79.75 45.3125 79.75L61.625 79.75C65.6125 79.75 68.875 76.4875 68.875 72.5 68.875 68.5125 65.6125 65.25 61.625 65.25Z" fill="#FFFFFF" transform="matrix(1.05747 0 0 1 454 484)"/></g></svg>