<svg width="87" height="87" xmlns="http://www.w3.org/2000/svg" xmlns:xlink="http://www.w3.org/1999/xlink" xml:space="preserve" overflow="hidden"><g transform="translate(-174 -484)"><path d="M217.754 556.5C221.727 553.363 225.519 550.001 229.109 546.432 234.314 541.473 238.916 535.919 242.821 529.883 246.446 524.047 249.908 516.471 247.524 509.547 245.594 503.82 240.238 498.953 234.084 498.364 226.309 497.594 220.681 504.173 217.5 510.472 214.591 504.708 209.779 498.763 202.828 498.328 196.656 497.947 190.911 502.288 188.255 507.68 184.929 514.45 187.639 522.062 191.137 528.143 194.762 534.487 199.583 540.061 204.677 545.217 208.692 549.325 212.975 553.161 217.5 556.699ZM203 525.688 205.719 517.531 207.332 512.683C207.749 511.423 208.392 509.737 210.132 510.462 211.183 510.907 211.247 511.994 211.428 512.946L212.18 516.96 214.355 528.56 215.796 536.263 221.052 522.362 222.212 519.298C222.548 518.392 222.892 517.486 224.025 517.386 225.466 517.241 225.892 518.474 226.209 519.561L227.324 523.386 229.535 530.989 231.719 528.588C232.418 527.673 233.204 526.83 234.066 526.068 234.973 525.434 236.649 525.724 237.691 525.724L241.062 525.724C240.392 526.929 239.649 528.143 238.842 529.349L235.897 529.349C233.967 531.478 232.118 533.744 230.07 535.765 229.427 536.533 228.284 536.634 227.517 535.992 227.366 535.865 227.236 535.715 227.133 535.547 226.937 535.158 226.793 534.743 226.708 534.315L225.194 529.14 223.962 524.899C221.651 530.998 219.43 537.106 217.047 543.178 216.914 543.673 216.624 544.111 216.222 544.429 215.397 544.996 214.269 544.786 213.702 543.961 213.557 543.75 213.459 543.511 213.413 543.26 213.204 542.426 213.096 541.556 212.932 540.722L210.64 528.488 208.927 519.344 206.371 527.02C205.982 528.162 205.673 529.276 204.205 529.349 202.873 529.412 201.532 529.349 200.209 529.349L196.131 529.349C195.333 528.143 194.581 526.929 193.91 525.724Z" fill="#FFFFFF"/></g></svg>