<svg width="88" height="87" xmlns="http://www.w3.org/2000/svg" xmlns:xlink="http://www.w3.org/1999/xlink" xml:space="preserve" overflow="hidden"><g transform="translate(-739 -484)"><path d="M61.4438 31.7188 58.3625 28.6375 55.825 31.175 58.9062 34.2562 56.0062 37.1562 52.925 34.075 50.3875 36.6125 53.4688 39.6937 50.5687 42.5938 47.4875 39.5125 44.95 42.05 48.0312 45.1312 45.2219 47.9406 39.0594 41.7781 58 22.8375 64.1625 29 61.4438 31.7188ZM78.9344 18.9406 68.0594 8.06562C66.9719 6.97812 65.25 6.97812 64.2531 8.06562 63.1656 9.15313 63.1656 10.875 64.2531 11.8719L66.5188 14.1375 61.7156 18.9406 58 15.225 56.2781 13.5031C55.1906 12.4156 53.4688 12.4156 52.4719 13.5031 51.3844 14.5906 51.3844 16.3125 52.4719 17.3094L54.1937 19.0312 30.2688 42.9563C28.4562 44.7688 27.3688 47.2156 27.3688 49.8438 27.3688 50.8406 27.55 51.8375 27.8219 52.8344L23.1094 57.5469C21.8406 58.8156 21.4781 60.7188 22.1125 62.35L7.79375 76.6687C7.06875 77.3938 7.06875 78.4812 7.79375 79.2063 8.15625 79.5688 8.60938 79.75 9.0625 79.75 9.51562 79.75 9.96875 79.5688 10.3312 79.2063L24.65 64.8875C26.2812 65.5219 28.1844 65.1594 29.4531 63.8906L34.1656 59.1781C35.1625 59.45 36.1594 59.6313 37.1562 59.6313 39.6937 59.6313 42.1406 58.725 44.0437 56.7312L67.9688 32.8063 69.6906 34.5281C70.2344 35.0719 70.9594 35.3438 71.5938 35.3438 72.2281 35.3438 72.9531 35.0719 73.4969 34.5281 74.5844 33.4406 74.5844 31.7188 73.4969 30.7219L71.775 29 68.0594 25.2844 72.8625 20.4813 75.1281 22.7469C75.6719 23.2906 76.3969 23.5625 77.0312 23.5625 77.6656 23.5625 78.3906 23.2906 78.9344 22.7469 80.0219 21.6594 80.0219 20.0281 78.9344 18.9406Z" fill="#FFFFFF" transform="matrix(1.01149 0 0 1 739 484)"/></g></svg>