<svg width="96" height="96" xmlns="http://www.w3.org/2000/svg" xmlns:xlink="http://www.w3.org/1999/xlink" xml:space="preserve" overflow="hidden"><g transform="translate(-1176 -71)"><path d="M1240 101C1240 109.837 1232.84 117 1224 117 1215.16 117 1208 109.837 1208 101 1208 92.1634 1215.16 85 1224 85 1232.84 85 1240 92.1634 1240 101Z" fill="#FFFFFF"/><path d="M1256 153 1256 137C1256 134.6 1254.8 132.2 1252.8 130.6 1248.4 127 1242.8 124.6 1237.2 123 1233.2 121.8 1228.8 121 1224 121 1219.6 121 1215.2 121.8 1210.8 123 1205.2 124.6 1199.6 127.4 1195.2 130.6 1193.2 132.2 1192 134.6 1192 137L1192 153 1256 153Z" fill="#FFFFFF"/></g></svg>