<svg width="87" height="87" xmlns="http://www.w3.org/2000/svg" xmlns:xlink="http://www.w3.org/1999/xlink" xml:space="preserve" overflow="hidden"><g transform="translate(-449 -230)"><path d="M528.75 272.594 487.062 272.594 487.062 294.344C487.068 296.343 488.688 297.963 490.688 297.969L526.938 297.969 526.938 302.5 532.375 302.5 532.375 276.219C532.369 274.219 530.75 272.6 528.75 272.594Z" fill="#FFFFFF"/><path d="M458.062 261.719C458.09 260.244 456.917 259.027 455.443 259 455.41 258.999 455.377 258.999 455.344 259 453.87 258.973 452.652 260.146 452.625 261.62 452.624 261.653 452.624 261.686 452.625 261.719L452.625 302.5 458.062 302.5 458.062 293.438 484.344 293.438 484.344 284.375 458.062 273.5Z" fill="#FFFFFF"/><path d="M472.452 268.323C472.452 271.327 470.017 273.761 467.014 273.761 464.011 273.761 461.577 271.327 461.577 268.323 461.577 265.32 464.011 262.886 467.014 262.886 470.017 262.886 472.452 265.32 472.452 268.323Z" fill="#FFFFFF"/><path d="M470.76 276.027 484.344 281.686 484.344 271.869 482.609 271.144C477.989 269.236 472.695 271.417 470.76 276.027Z" fill="#FFFFFF"/><path d="M516.062 243.594 496.125 243.594C495.124 243.594 494.312 244.405 494.312 245.406L494.312 259.656C494.312 260.657 495.124 261.469 496.125 261.469L516.062 261.469C517.064 261.469 517.875 260.657 517.875 259.656L517.875 245.406C517.875 244.405 517.064 243.594 516.062 243.594ZM516.267 253.176 513.077 253.176 510.784 255.694C510.502 256.003 510.024 256.025 509.716 255.744 509.613 255.65 509.538 255.53 509.499 255.397L508.369 251.527 505.645 258.728C505.534 259.023 505.252 259.217 504.937 259.217L504.872 259.217C504.535 259.186 504.259 258.935 504.197 258.602L502.469 249.382 501.375 252.656C501.273 252.966 500.984 253.176 500.657 253.177L496.125 253.177 496.125 251.666 500.112 251.666 501.955 246.138C502.089 245.742 502.518 245.531 502.914 245.665 503.171 245.752 503.362 245.972 503.413 246.239L505.176 255.678 507.749 248.881C507.896 248.49 508.332 248.293 508.723 248.44 508.945 248.524 509.115 248.708 509.181 248.936L510.572 253.679 512.183 251.918C512.325 251.758 512.528 251.667 512.741 251.666L516.266 251.666Z" fill="#FFFFFF"/></g></svg>