<svg width="87" height="87" xmlns="http://www.w3.org/2000/svg" xmlns:xlink="http://www.w3.org/1999/xlink" xml:space="preserve" overflow="hidden"><g transform="translate(-166 -230)"><path d="M240.318 287.093C240.318 288.094 239.506 288.905 238.505 288.905 237.504 288.905 236.693 288.094 236.693 287.093 236.693 286.092 237.504 285.28 238.505 285.28 239.506 285.28 240.318 286.092 240.318 287.093Z" fill="#FFFFFF"/><path d="M251.193 279.843C251.193 280.844 250.381 281.655 249.38 281.655 248.379 281.655 247.568 280.844 247.568 279.843 247.568 278.842 248.379 278.03 249.38 278.03 250.381 278.03 251.193 278.842 251.193 279.843Z" fill="#FFFFFF"/><path d="M251.193 287.093C251.193 288.094 250.381 288.905 249.38 288.905 248.379 288.905 247.568 288.094 247.568 287.093 247.568 286.092 248.379 285.28 249.38 285.28 250.381 285.28 251.193 286.092 251.193 287.093Z" fill="#FFFFFF"/><path d="M245.755 283.468C245.755 284.469 244.944 285.28 243.943 285.28 242.942 285.28 242.13 284.469 242.13 283.468 242.13 282.467 242.942 281.655 243.943 281.655 244.944 281.655 245.755 282.467 245.755 283.468Z" fill="#FFFFFF"/><path d="M245.755 290.718C245.755 291.719 244.944 292.53 243.943 292.53 242.942 292.53 242.13 291.719 242.13 290.718 242.13 289.717 242.942 288.905 243.943 288.905 244.944 288.905 245.755 289.717 245.755 290.718Z" fill="#FFFFFF"/><path d="M251.193 294.343C251.193 295.344 250.381 296.155 249.38 296.155 248.379 296.155 247.568 295.344 247.568 294.343 247.568 293.342 248.379 292.53 249.38 292.53 250.381 292.53 251.193 293.342 251.193 294.343Z" fill="#FFFFFF"/><path d="M189.368 285.299 189.368 308.233 218.007 308.233 218.007 297.355 222.448 297.355C225.306 297.35 228.045 296.209 230.061 294.183 232.049 292.111 233.154 289.348 233.142 286.477L233.142 281.038 237.13 281.038C239.486 280.766 241.571 278.047 239.396 274.693L233.142 263.815 233.142 263.362C233.717 248.32 221.989 235.662 206.948 235.088 191.907 234.514 179.248 246.241 178.674 261.282 178.648 261.975 178.648 262.669 178.674 263.362 178.639 271.938 182.59 280.044 189.368 285.299ZM225.262 261.783C226.763 261.783 227.98 263 227.98 264.501 227.98 266.003 226.763 267.22 225.262 267.22 223.76 267.22 222.543 266.003 222.543 264.501 222.516 263.027 223.689 261.81 225.164 261.783 225.196 261.782 225.229 261.782 225.262 261.783Z" fill="#FFFFFF"/></g></svg>