<svg width="87" height="87" xmlns="http://www.w3.org/2000/svg" xmlns:xlink="http://www.w3.org/1999/xlink" xml:space="preserve" overflow="hidden"><g transform="translate(-169 -486)"><path d="M223.375 520.438 223.375 517.719 212.5 506.844 201.625 517.719 201.625 520.438 175.344 520.438 175.344 524.062 177.156 524.062 177.156 558.5 247.844 558.5 247.844 524.062 249.656 524.062 249.656 520.438ZM186.219 551.25 180.781 551.25 180.781 545.812 186.219 545.812ZM186.219 542.188 180.781 542.188 180.781 536.75 186.219 536.75ZM186.219 533.125 180.781 533.125 180.781 527.688 186.219 527.688ZM195.281 551.25 189.844 551.25 189.844 545.812 195.281 545.812ZM195.281 542.188 189.844 542.188 189.844 536.75 195.281 536.75ZM195.281 533.125 189.844 533.125 189.844 527.688 195.281 527.688ZM204.344 551.25 198.906 551.25 198.906 545.812 204.344 545.812ZM204.344 542.188 198.906 542.188 198.906 536.75 204.344 536.75ZM204.344 533.125 198.906 533.125 198.906 527.688 204.344 527.688ZM208.875 554.875 208.875 542.188 216.125 542.188 216.125 554.875ZM218.844 523.954 217.149 526.89 214.195 525.177 214.195 528.594 210.805 528.594 210.805 525.177 207.851 526.89 206.156 523.954 209.12 522.25 206.156 520.546 207.851 517.61 210.805 519.323 210.805 515.906 214.195 515.906 214.195 519.323 217.149 517.61 218.844 520.546 215.88 522.25ZM226.094 551.25 220.656 551.25 220.656 545.812 226.094 545.812ZM226.094 542.188 220.656 542.188 220.656 536.75 226.094 536.75ZM226.094 533.125 220.656 533.125 220.656 527.688 226.094 527.688ZM235.156 551.25 229.719 551.25 229.719 545.812 235.156 545.812ZM235.156 542.188 229.719 542.188 229.719 536.75 235.156 536.75ZM235.156 533.125 229.719 533.125 229.719 527.688 235.156 527.688ZM244.219 551.25 238.781 551.25 238.781 545.812 244.219 545.812ZM244.219 542.188 238.781 542.188 238.781 536.75 244.219 536.75ZM244.219 533.125 238.781 533.125 238.781 527.688 244.219 527.688Z" fill="#FFFFFF"/><path d="M212.5 502.158 225.722 515.372 228.278 512.816 212.5 497.029 196.722 512.816 199.278 515.372 212.5 502.158Z" fill="#FFFFFF"/></g></svg>