<svg width="87" height="87" xmlns="http://www.w3.org/2000/svg" xmlns:xlink="http://www.w3.org/1999/xlink" xml:space="preserve" overflow="hidden"><g transform="translate(-1039 -487)"><path d="M1069.81 504.219 1095.19 504.219C1098.72 504.219 1101.53 507.028 1101.53 510.562L1096.09 510.562 1096.09 514.188 1101.53 514.188 1101.53 519.625 1096.09 519.625 1096.09 523.25 1101.53 523.25 1101.53 528.688 1096.09 528.688 1096.09 532.312 1101.53 532.312 1101.53 535.938C1096.82 537.841 1091.2 536.481 1086.4 534.669 1082.32 533.128 1080.14 531.225 1075.88 530.591 1072.26 530.047 1066.91 530.681 1063.47 532.766L1063.47 510.562C1063.47 507.028 1066.28 504.219 1069.81 504.219ZM1082.5 494.25C1083.5 494.25 1084.31 495.066 1084.31 496.062 1084.31 497.059 1083.5 497.875 1082.5 497.875 1081.5 497.875 1080.69 497.059 1080.69 496.062 1080.69 495.066 1081.5 494.25 1082.5 494.25ZM1095.19 498.781 1087.21 498.781C1087.67 497.966 1087.94 497.059 1087.94 496.062 1087.94 493.072 1085.49 490.625 1082.5 490.625 1079.51 490.625 1077.06 493.072 1077.06 496.062 1077.06 497.059 1077.33 497.966 1077.79 498.781L1069.81 498.781C1063.29 498.781 1058.03 504.038 1058.03 510.562L1058.03 546.812C1058.03 553.338 1063.29 558.594 1069.81 558.594L1077.06 558.594 1077.06 562.219C1077.06 563.216 1077.88 564.031 1078.88 564.031L1080.69 564.031 1080.69 570.375 1084.31 570.375 1084.31 564.031 1086.12 564.031C1087.12 564.031 1087.94 563.216 1087.94 562.219L1087.94 558.594 1095.19 558.594C1101.71 558.594 1106.97 553.338 1106.97 546.812L1106.97 510.562C1106.97 504.038 1101.71 498.781 1095.19 498.781Z" fill="#FFFFFF"/></g></svg>