<svg width="87" height="87" xmlns="http://www.w3.org/2000/svg" xmlns:xlink="http://www.w3.org/1999/xlink" xml:space="preserve" overflow="hidden"><g transform="translate(-732 -227)"><path d="M808.125 249.656 790 249.656 790 243.312C790 239.809 787.16 236.969 783.656 236.969L767.344 236.969C763.84 236.969 761 239.809 761 243.312L761 249.656 742.875 249.656C740.873 249.656 739.25 251.279 739.25 253.281L739.25 296.781C739.25 298.783 740.873 300.406 742.875 300.406L808.125 300.406C810.127 300.406 811.75 298.783 811.75 296.781L811.75 253.281C811.75 251.279 810.127 249.656 808.125 249.656ZM766.438 243.312C766.406 242.843 766.762 242.437 767.231 242.406 767.269 242.404 767.306 242.404 767.344 242.406L783.656 242.406C784.126 242.375 784.531 242.731 784.562 243.2 784.565 243.237 784.565 243.275 784.562 243.312L784.562 249.656 766.438 249.656ZM789.094 278.656 785.469 285 779.125 281.375 779.125 288.625 771.875 288.625 771.875 281.312 765.531 284.937 761.906 278.656 768.25 275.031 761.906 271.406 765.531 265.062 771.875 268.688 771.875 261.438 779.125 261.438 779.125 268.751 785.469 265.126 789.094 271.406 782.75 275.031Z" fill="#FFFFFF"/></g></svg>