<svg width="88" height="87" xmlns="http://www.w3.org/2000/svg" xmlns:xlink="http://www.w3.org/1999/xlink" xml:space="preserve" overflow="hidden"><g transform="translate(-444 -494)"><path d="M58 27.1875C58 35.1956 51.5081 41.6875 43.5 41.6875 35.4919 41.6875 29 35.1956 29 27.1875 29 19.1794 35.4919 12.6875 43.5 12.6875 51.5081 12.6875 58 19.1794 58 27.1875Z" fill="#FFFFFF" transform="matrix(1.01149 0 0 1 444 494)"/><path d="M72.5 74.3125 72.5 59.8125C72.5 57.6375 71.4125 55.4625 69.6 54.0125 65.6125 50.75 60.5375 48.575 55.4625 47.125 51.8375 46.0375 47.85 45.3125 43.5 45.3125 39.5125 45.3125 35.525 46.0375 31.5375 47.125 26.4625 48.575 21.3875 51.1125 17.4 54.0125 15.5875 55.4625 14.5 57.6375 14.5 59.8125L14.5 74.3125 72.5 74.3125Z" fill="#FFFFFF" transform="matrix(1.01149 0 0 1 444 494)"/></g></svg>