<svg width="87" height="88" xmlns="http://www.w3.org/2000/svg" xmlns:xlink="http://www.w3.org/1999/xlink" xml:space="preserve" overflow="hidden"><g transform="translate(-156 -491)"><path d="M20.8438 74.3125 20.8438 12.6875 43.5 12.6875 43.5 31.7188 66.1562 31.7188 66.1562 74.3125 20.8438 74.3125ZM48.9375 14.9531 60.2656 26.2812 48.9375 26.2812 48.9375 14.9531ZM48.9375 7.25 15.4062 7.25 15.4062 79.75 71.5938 79.75 71.5938 27.1875 48.9375 7.25Z" fill="#FFFFFF" transform="matrix(1 0 0 1.01149 156 491)"/><path d="M26.2812 40.7812 60.7188 40.7812 60.7188 44.4062 26.2812 44.4062Z" fill="#FFFFFF" transform="matrix(1 0 0 1.01149 156 491)"/><path d="M26.2812 33.5312 38.0625 33.5312 38.0625 37.1562 26.2812 37.1562Z" fill="#FFFFFF" transform="matrix(1 0 0 1.01149 156 491)"/><path d="M26.2812 48.0312 60.7188 48.0312 60.7188 51.6562 26.2812 51.6562Z" fill="#FFFFFF" transform="matrix(1 0 0 1.01149 156 491)"/><path d="M26.2812 55.2812 60.7188 55.2812 60.7188 58.9062 26.2812 58.9062Z" fill="#FFFFFF" transform="matrix(1 0 0 1.01149 156 491)"/><path d="M26.2812 62.5312 60.7188 62.5312 60.7188 66.1562 26.2812 66.1562Z" fill="#FFFFFF" transform="matrix(1 0 0 1.01149 156 491)"/></g></svg>