<svg width="88" height="88" xmlns="http://www.w3.org/2000/svg" xmlns:xlink="http://www.w3.org/1999/xlink" xml:space="preserve" overflow="hidden"><g transform="translate(-1009 -491)"><path d="M1081.42 550.545C1081.32 547.878 1080.08 545.382 1078.02 543.686 1075.15 541.247 1071.21 539.148 1065.71 537.107 1067.64 536.896 1069.53 536.424 1071.33 535.705 1071.33 535.705 1069.26 534.465 1067.98 529.389 1067.16 526.2 1070.28 518.227 1070.31 512.614 1070.31 508.122 1069.03 506.111 1066.62 504.747 1065.23 503.959 1062.02 504.685 1062.02 504.685 1062.02 504.685 1060.37 501.542 1054.82 499.818 1050.27 498.576 1045.4 499.196 1041.31 501.542 1037.88 503.76 1036.22 506.197 1036.14 514.577 1036.07 522.257 1037.12 529.078 1036.64 532.294 1036.41 534.074 1035.73 535.767 1034.67 537.211 1036.35 537.352 1038.03 537.389 1039.72 537.322 1034.52 539.296 1030.75 541.332 1027.98 543.685 1025.91 545.391 1024.67 547.903 1024.58 550.583L1024.58 566.688 1025.4 567.233C1029.89 570.226 1041.62 571.717 1053.26 571.717 1065 571.717 1076.65 570.2 1080.68 567.175L1081.42 566.625ZM1066.3 547.833C1067.31 547.833 1068.13 548.654 1068.13 549.667 1068.13 550.679 1067.31 551.5 1066.3 551.5 1065.28 551.5 1064.46 550.679 1064.46 549.667 1064.46 548.654 1065.28 547.833 1066.3 547.833ZM1042 516.611C1042.45 516.583 1042.89 516.53 1043.33 516.45 1046.41 516.045 1049.41 515.201 1052.24 513.943 1055.43 512.34 1057.26 511.553 1059.9 509.159 1060.25 508.816 1060.81 508.82 1061.16 509.169 1061.29 509.301 1061.37 509.471 1061.4 509.655 1061.61 511.113 1062.16 514.32 1062.89 515.599 1063.22 516.228 1063.59 516.834 1064 517.413L1064 521.25C1064 527.325 1059.08 532.25 1053 532.25 1046.92 532.25 1042 527.325 1042 521.25ZM1060.17 538.583C1057.84 539.269 1055.43 539.606 1053 539.583 1050.57 539.607 1048.15 539.269 1045.82 538.582 1046.89 537.714 1047.5 536.413 1047.5 535.041L1047.5 534.834C1051.03 536.275 1054.98 536.275 1058.5 534.834L1058.5 535.038C1058.5 536.41 1059.11 537.712 1060.17 538.583ZM1077.75 564.708C1069.72 569.126 1037.05 569.088 1028.26 564.652L1028.26 550.622C1028.33 549.002 1029.09 547.492 1030.36 546.48 1032.91 544.449 1035.75 542.815 1038.79 541.637L1038.79 545.562C1035.18 545.803 1032.38 548.799 1032.38 552.417 1032.38 552.806 1032.54 553.176 1032.83 553.434L1032.83 559.292C1032.84 560.568 1033.72 561.674 1034.96 561.964 1035.42 562.566 1036.29 562.678 1036.89 562.215 1037.49 561.753 1037.6 560.889 1037.14 560.287 1036.68 559.685 1035.81 559.573 1035.21 560.036 1035.19 560.051 1035.17 560.068 1035.15 560.085 1034.86 559.929 1034.67 559.625 1034.67 559.292L1034.67 553.434C1034.96 553.176 1035.12 552.806 1035.12 552.417 1035.12 550.138 1036.97 548.292 1039.25 548.292L1040.17 548.292C1042.44 548.292 1044.29 550.138 1044.29 552.417 1044.29 552.806 1044.46 553.176 1044.75 553.434L1044.75 559.292C1044.75 559.625 1044.56 559.929 1044.27 560.085 1043.69 559.588 1042.82 559.652 1042.33 560.227 1041.83 560.802 1041.89 561.67 1042.47 562.166 1043.04 562.663 1043.91 562.599 1044.41 562.024 1044.43 562.004 1044.44 561.984 1044.46 561.964 1045.7 561.674 1046.58 560.568 1046.58 559.292L1046.58 553.434C1046.87 553.176 1047.04 552.806 1047.04 552.417 1047.04 548.801 1044.23 545.806 1040.62 545.565L1040.62 540.899C1040.88 540.8 1041.13 540.701 1041.39 540.601 1044.09 542.273 1048.32 543.25 1053 543.25 1057.68 543.25 1061.91 542.272 1064.6 540.601 1064.87 540.702 1065.12 540.802 1065.38 540.902L1065.38 546.069C1065.38 546.09 1065.39 546.106 1065.39 546.127 1063.43 546.626 1062.24 548.622 1062.74 550.585 1063.24 552.547 1065.24 553.733 1067.2 553.233 1069.16 552.733 1070.35 550.737 1069.85 548.774 1069.52 547.474 1068.5 546.458 1067.2 546.127 1067.2 546.106 1067.21 546.089 1067.21 546.069L1067.21 541.64C1070.25 542.817 1073.09 544.45 1075.64 546.481 1076.9 547.482 1077.67 548.977 1077.75 550.583Z" fill="#FFFFFF"/><path d="M1067.21 549.667C1067.21 550.173 1066.8 550.583 1066.3 550.583 1065.79 550.583 1065.38 550.173 1065.38 549.667 1065.38 549.16 1065.79 548.75 1066.3 548.75 1066.8 548.75 1067.21 549.16 1067.21 549.667Z" fill="#FFFFFF"/></g></svg>