<svg width="87" height="87" xmlns="http://www.w3.org/2000/svg" xmlns:xlink="http://www.w3.org/1999/xlink" xml:space="preserve" overflow="hidden"><g transform="translate(-739 -505)"><path d="M762.562 543.969C762.562 546.972 760.128 549.406 757.125 549.406 754.122 549.406 751.688 546.972 751.688 543.969 751.688 540.966 754.122 538.531 757.125 538.531 760.128 538.531 762.562 540.966 762.562 543.969Z" fill="#FFFFFF"/><path d="M763.469 549.406 774.344 549.406 774.344 540.344 772.531 540.344C767.547 540.344 763.469 544.422 763.469 549.406Z" fill="#FFFFFF"/><path d="M818.75 540.344 777.062 540.344 777.062 562.094C777.062 564.088 778.694 565.719 780.688 565.719L816.938 565.719 816.938 570.25 822.375 570.25 822.375 543.969C822.375 541.975 820.744 540.344 818.75 540.344Z" fill="#FFFFFF"/><path d="M748.062 529.469C748.062 527.928 746.884 526.75 745.344 526.75 743.803 526.75 742.625 527.928 742.625 529.469L742.625 570.25 748.062 570.25 748.062 561.188 774.344 561.188 774.344 552.125 748.062 552.125 748.062 529.469Z" fill="#FFFFFF"/></g></svg>