<svg width="87" height="87" xmlns="http://www.w3.org/2000/svg" xmlns:xlink="http://www.w3.org/1999/xlink" xml:space="preserve" overflow="hidden"><g transform="translate(-444 -495)"><path d="M470.191 528.531 515.594 528.531 515.594 524C515.594 522.006 513.963 520.375 511.969 520.375L484.781 520.375 474.812 513.759C474.178 513.397 473.544 513.125 472.819 513.125L455.781 513.125C453.788 513.125 452.156 514.756 452.156 516.75L452.156 561.156C452.156 561.338 463.847 532.791 463.847 532.791 464.934 530.253 467.381 528.531 470.191 528.531Z" fill="#FFFFFF"/><path d="M522.844 535.781C522.844 533.878 521.484 532.338 519.581 532.156L470.191 532.156C468.831 532.156 467.653 532.972 467.109 534.15L454.875 563.875 510.156 563.875 522.481 537.412C522.753 536.869 522.844 536.325 522.844 535.781L522.844 535.781Z" fill="#FFFFFF"/></g></svg>